<svg width="14" height="14" viewBox="0 0 14 14" fill="none" xmlns="http://www.w3.org/2000/svg">
<g clip-path="url(#clip0_6166_15762)">
<path d="M5.92188 8.3202L7.11057 9.42854L9.62097 6.10352" stroke="white" stroke-width="0.831257" stroke-linecap="round" stroke-linejoin="round"/>
<path d="M10.1554 3.88477H5.35298C5.15886 3.88469 4.96664 3.92287 4.78729 3.99712C4.60794 4.07137 4.44498 4.18024 4.30773 4.31749C4.17047 4.45475 4.06161 4.61771 3.98736 4.79706C3.91311 4.97641 3.87493 5.16863 3.875 5.36274V10.1652C3.87493 10.3593 3.91311 10.5515 3.98736 10.7309C4.06161 10.9102 4.17047 11.0732 4.30773 11.2104C4.44498 11.3477 4.60794 11.4566 4.78729 11.5308C4.96664 11.6051 5.15886 11.6432 5.35298 11.6432H10.1554C10.3495 11.6432 10.5418 11.6051 10.7211 11.5308C10.9005 11.4566 11.0634 11.3477 11.2007 11.2104C11.3379 11.0732 11.4468 10.9102 11.521 10.7309C11.5953 10.5515 11.6335 10.3593 11.6334 10.1652V5.36274C11.6335 5.16863 11.5953 4.97641 11.521 4.79706C11.4468 4.61771 11.3379 4.45475 11.2007 4.31749C11.0634 4.18024 10.9005 4.07137 10.7211 3.99712C10.5418 3.92287 10.3495 3.88469 10.1554 3.88477Z" stroke="white" stroke-width="0.831257" stroke-linecap="round" stroke-linejoin="round"/>
<path d="M9.16673 2.03687C9.019 1.78054 8.79756 1.57459 8.5312 1.4458C8.26484 1.31702 7.96589 1.27137 7.67324 1.31479L2.55713 2.07511C2.36517 2.10364 2.18071 2.1697 2.01429 2.26954C1.84786 2.36937 1.70274 2.50101 1.58721 2.65694C1.47167 2.81287 1.38799 2.99004 1.34095 3.17832C1.2939 3.3666 1.28441 3.5623 1.31301 3.75425L2.03565 8.61655" stroke="white" stroke-width="0.831257" stroke-linecap="round" stroke-linejoin="round"/>
</g>
<defs>
<clipPath id="clip0_6166_15762">
<rect width="13.3001" height="13.3001" fill="white"/>
</clipPath>
</defs>
</svg>
