<svg width="9" height="9" viewBox="0 0 9 9" fill="none" xmlns="http://www.w3.org/2000/svg">
<path d="M2.95805 8.14858H5.92102C7.4099 8.14858 7.67657 7.55229 7.75435 6.82636L8.03213 3.8634C8.13213 2.95969 7.87287 2.22266 6.29139 2.22266H2.58768C1.0062 2.22266 0.746941 2.95969 0.846941 3.8634L1.12472 6.82636C1.2025 7.55229 1.46916 8.14858 2.95805 8.14858Z" stroke="#FF383C" stroke-width="0.5" stroke-miterlimit="10" stroke-linecap="round" stroke-linejoin="round"/>
<path d="M2.96094 2.22172V1.92542C2.96094 1.26986 2.96094 0.740234 4.14612 0.740234H4.73872C5.9239 0.740234 5.9239 1.26986 5.9239 1.92542V2.22172" stroke="#FF383C" stroke-width="0.5" stroke-miterlimit="10" stroke-linecap="round" stroke-linejoin="round"/>
<path d="M5.18461 4.81568V5.18605C5.18461 5.18976 5.18461 5.18976 5.18461 5.19346C5.18461 5.59716 5.1809 5.92679 4.44387 5.92679C3.71053 5.92679 3.70312 5.60087 3.70312 5.19716V4.81568C3.70312 4.44531 3.70312 4.44531 4.0735 4.44531H4.81424C5.18461 4.44531 5.18461 4.44531 5.18461 4.81568Z" stroke="#FF383C" stroke-width="0.5" stroke-miterlimit="10" stroke-linecap="round" stroke-linejoin="round"/>
<path d="M8.01302 4.07422C7.15747 4.69644 6.17969 5.06681 5.17969 5.19274" stroke="#FF383C" stroke-width="0.5" stroke-miterlimit="10" stroke-linecap="round" stroke-linejoin="round"/>
<path d="M0.96875 4.17383C1.80208 4.7442 2.74282 5.08864 3.70208 5.19605" stroke="#FF383C" stroke-width="0.5" stroke-miterlimit="10" stroke-linecap="round" stroke-linejoin="round"/>
</svg>
