<svg width="11" height="8" viewBox="0 0 11 8" fill="none" xmlns="http://www.w3.org/2000/svg">
<path d="M4 0C1.79 0 0 1.79 0 4C0 6.21 1.79 8 4 8C6.21 8 8 6.21 8 4C8 1.79 6.21 0 4 0ZM4 7C2.345 7 1 5.655 1 4C1 2.345 2.345 1 4 1C5.655 1 7 2.345 7 4C7 5.655 5.655 7 4 7ZM8 0.13V1.175C8.58482 1.38091 9.09131 1.76325 9.4496 2.26926C9.80789 2.77526 10.0003 3.37999 10.0003 4C10.0003 4.62001 9.80789 5.22474 9.4496 5.73074C9.09131 6.23675 8.58482 6.61908 8 6.825V7.87C9.725 7.425 11 5.865 11 4C11 2.135 9.725 0.575 8 0.13Z" fill="#FF383C"/>
</svg>
